<svg width="1440" height="311" viewBox="0 0 1440 311" fill="none" xmlns="http://www.w3.org/2000/svg">
<rect y="7" width="1440" height="300" fill="url(#paint0_linear_1692_985)"/>
<path d="M1633 158.79L1574.67 139.79C1516.33 120.79 1399.67 82.7901 1283 76.4901C1166.33 69.7901 1049.67 95.7901 933 120.79C816.333 145.79 699.667 171.79 583 139.79C466.333 107.79 349.667 19.7901 233 32.0901C116.333 44.7901 -0.333374 158.79 -117 184.09C-233.667 209.79 -350.333 145.79 -467 133.49C-583.667 120.79 -700.333 158.79 -817 190.49C-933.667 221.79 -1050.33 247.79 -1167 241.09C-1283.67 234.79 -1400.33 196.79 -1517 139.79C-1633.67 82.7901 -1750.33 6.7901 -1867 0.490097C-1983.67 -6.2099 -2100.33 57.7901 -2217 70.0901C-2333.67 82.7901 -2450.33 44.7901 -2567 70.0901C-2683.67 95.7901 -2800.33 183.79 -2917 171.49C-3033.67 158.79 -3150.33 44.7901 -3267 38.4901C-3383.67 31.7901 -3500.33 133.79 -3617 171.49C-3733.67 209.79 -3850.33 183.79 -3967 177.79C-4083.67 171.79 -4200.33 183.79 -4317 190.49C-4433.67 196.79 -4550.33 196.79 -4667 184.09C-4783.67 171.79 -4900.33 145.79 -5017 152.49C-5133.67 158.79 -5250.33 196.79 -5367 203.09C-5483.67 209.79 -5600.33 183.79 -5717 152.49C-5833.67 120.79 -5950.33 82.7901 -6067 82.7901C-6183.67 82.7901 -6300.33 120.79 -6417 127.09C-6533.67 133.79 -6650.33 107.79 -6708.67 95.4901L-6767 82.7901V310.79H-6708.67C-6650.33 310.79 -6533.67 310.79 -6417 310.79C-6300.33 310.79 -6183.67 310.79 -6067 310.79C-5950.33 310.79 -5833.67 310.79 -5717 310.79C-5600.33 310.79 -5483.67 310.79 -5367 310.79C-5250.33 310.79 -5133.67 310.79 -5017 310.79C-4900.33 310.79 -4783.67 310.79 -4667 310.79C-4550.33 310.79 -4433.67 310.79 -4317 310.79C-4200.33 310.79 -4083.67 310.79 -3967 310.79C-3850.33 310.79 -3733.67 310.79 -3617 310.79C-3500.33 310.79 -3383.67 310.79 -3267 310.79C-3150.33 310.79 -3033.67 310.79 -2917 310.79C-2800.33 310.79 -2683.67 310.79 -2567 310.79C-2450.33 310.79 -2333.67 310.79 -2217 310.79C-2100.33 310.79 -1983.67 310.79 -1867 310.79C-1750.33 310.79 -1633.67 310.79 -1517 310.79C-1400.33 310.79 -1283.67 310.79 -1167 310.79C-1050.33 310.79 -933.667 310.79 -817 310.79C-700.333 310.79 -583.667 310.79 -467 310.79C-350.333 310.79 -233.667 310.79 -117 310.79C-0.333374 310.79 116.333 310.79 233 310.79C349.667 310.79 466.333 310.79 583 310.79C699.667 310.79 816.333 310.79 933 310.79C1049.67 310.79 1166.33 310.79 1283 310.79C1399.67 310.79 1516.33 310.79 1574.67 310.79H1633V158.79Z" fill="#00E125" fill-opacity="0.96"/>
<defs>
<linearGradient id="paint0_linear_1692_985" x1="268" y1="110.053" x2="382.688" y2="570.407" gradientUnits="userSpaceOnUse">
<stop stop-color="#00E125"/>
<stop offset="0.296875" stop-color="#3FEE5C"/>
<stop offset="1" stop-color="#97FFA8"/>
</linearGradient>
</defs>
</svg>
