<svg width="26" height="26" viewBox="0 0 26 26" fill="none" xmlns="http://www.w3.org/2000/svg">
<g id="briefcase-outline 2">
<path id="Vector" d="M21.666 6.49996C22.2943 6.49996 22.8035 6.71663 23.2043 7.13913C23.616 7.58329 23.8327 8.07079 23.8327 8.66663V20.5833C23.8327 21.1791 23.616 21.6666 23.2043 22.1108C22.8035 22.5333 22.2943 22.75 21.666 22.75H4.33268C3.70435 22.75 3.19518 22.5333 2.79435 22.1108C2.38268 21.6666 2.16602 21.1791 2.16602 20.5833V8.66663C2.16602 8.07079 2.38268 7.58329 2.79435 7.13913C3.19518 6.71663 3.70435 6.49996 4.33268 6.49996H8.66602V4.33329C8.66602 3.70496 8.88268 3.19579 9.29435 2.79496C9.69518 2.38329 10.2043 2.16663 10.8327 2.16663H15.166C15.7943 2.16663 16.3035 2.38329 16.7043 2.79496C17.116 3.19579 17.3327 3.70496 17.3327 4.33329V6.49996H21.666ZM4.33268 8.66663V20.5833H21.666V8.66663H4.33268ZM15.166 6.49996V4.33329H10.8327V6.49996H15.166Z" fill="#1CFF41"/>
</g>
</svg>
