<svg width="26" height="26" viewBox="0 0 26 26" fill="none" xmlns="http://www.w3.org/2000/svg">
<g id="Money">
<path id="Vector" d="M24.375 5.28125H1.625C1.30177 5.28125 0.991774 5.40965 0.763214 5.63821C0.534654 5.86677 0.40625 6.17677 0.40625 6.5V19.5C0.40625 19.8232 0.534654 20.1332 0.763214 20.3618C0.991774 20.5903 1.30177 20.7188 1.625 20.7188H24.375C24.6982 20.7188 25.0082 20.5903 25.2368 20.3618C25.4653 20.1332 25.5938 19.8232 25.5938 19.5V6.5C25.5938 6.17677 25.4653 5.86677 25.2368 5.63821C25.0082 5.40965 24.6982 5.28125 24.375 5.28125ZM18.4041 18.2812H7.59586C7.35471 17.1115 6.77611 16.038 5.93156 15.1934C5.08701 14.3489 4.01353 13.7703 2.84375 13.5291V12.4709C4.01353 12.2297 5.08701 11.6511 5.93156 10.8066C6.77611 9.96201 7.35471 8.88853 7.59586 7.71875H18.4041C18.6453 8.88853 19.2239 9.96201 20.0684 10.8066C20.913 11.6511 21.9865 12.2297 23.1562 12.4709V13.5291C21.9865 13.7703 20.913 14.3489 20.0684 15.1934C19.2239 16.038 18.6453 17.1115 18.4041 18.2812ZM23.1562 9.94703C22.643 9.7638 22.1769 9.46886 21.7915 9.0835C21.4061 8.69814 21.1112 8.232 20.928 7.71875H23.1562V9.94703ZM5.07203 7.71875C4.8888 8.232 4.59386 8.69814 4.2085 9.0835C3.82314 9.46886 3.357 9.7638 2.84375 9.94703V7.71875H5.07203ZM2.84375 16.053C3.357 16.2362 3.82314 16.5311 4.2085 16.9165C4.59386 17.3019 4.8888 17.768 5.07203 18.2812H2.84375V16.053ZM20.928 18.2812C21.1112 17.768 21.4061 17.3019 21.7915 16.9165C22.1769 16.5311 22.643 16.2362 23.1562 16.053V18.2812H20.928ZM13 8.9375C12.1965 8.9375 11.4111 9.17576 10.743 9.62216C10.0749 10.0685 9.55422 10.703 9.24674 11.4453C8.93926 12.1877 8.85881 13.0045 9.01556 13.7926C9.17231 14.5806 9.55923 15.3045 10.1274 15.8726C10.6955 16.4408 11.4194 16.8277 12.2074 16.9844C12.9955 17.1412 13.8123 17.0607 14.5547 16.7533C15.297 16.4458 15.9315 15.9251 16.3778 15.257C16.8242 14.5889 17.0625 13.8035 17.0625 13C17.0625 11.9226 16.6345 10.8892 15.8726 10.1274C15.1108 9.36551 14.0774 8.9375 13 8.9375ZM13 14.625C12.6786 14.625 12.3644 14.5297 12.0972 14.3511C11.83 14.1726 11.6217 13.9188 11.4987 13.6219C11.3757 13.3249 11.3435 12.9982 11.4062 12.683C11.4689 12.3678 11.6237 12.0782 11.851 11.851C12.0782 11.6237 12.3678 11.4689 12.683 11.4062C12.9982 11.3435 13.3249 11.3757 13.6219 11.4987C13.9188 11.6217 14.1726 11.83 14.3511 12.0972C14.5297 12.3644 14.625 12.6786 14.625 13C14.625 13.431 14.4538 13.8443 14.149 14.149C13.8443 14.4538 13.431 14.625 13 14.625Z" fill="#00E125"/>
</g>
</svg>
