<svg width="33" height="33" viewBox="0 0 33 33" fill="none" xmlns="http://www.w3.org/2000/svg">
<g id="PaypalLogo">
<path id="Vector" d="M28.0147 12.1925C27.3435 11.3299 26.479 10.6371 25.4909 10.17C25.4061 8.37278 24.6325 6.67724 23.3307 5.43526C22.0289 4.19328 20.2989 3.50025 18.4997 3.5H10.9997C10.5537 3.50007 10.1205 3.6492 9.76903 3.9237C9.41752 4.19821 9.16785 4.58232 9.0597 5.015L4.5597 23.015C4.486 23.3098 4.48046 23.6176 4.5435 23.9149C4.60654 24.2122 4.73651 24.4912 4.92352 24.7307C5.11053 24.9703 5.34967 25.1641 5.62279 25.2974C5.8959 25.4307 6.19579 25.5 6.4997 25.5H9.9372L9.5622 27.015C9.48855 27.3096 9.48297 27.6172 9.54587 27.9143C9.60878 28.2114 9.73852 28.4902 9.92525 28.7297C10.112 28.9692 10.3508 29.1631 10.6236 29.2965C10.8964 29.43 11.196 29.4996 11.4997 29.5H15.4372C15.8828 29.4994 16.3154 29.35 16.6664 29.0755C17.0174 28.8011 17.2666 28.4173 17.3747 27.985L18.4997 23.5H22.4997C23.8112 23.5 25.0962 23.1315 26.2085 22.4366C27.3207 21.7417 28.2154 20.7483 28.7905 19.5697C29.3656 18.3911 29.598 17.0746 29.4613 15.7703C29.3246 14.4659 28.8242 13.2263 28.0172 12.1925H28.0147ZM6.4997 23.5L10.9997 5.5H18.4997C19.6631 5.49967 20.7903 5.90508 21.687 6.64638C22.5837 7.38769 23.1938 8.4185 23.4122 9.56125C23.1097 9.52131 22.8049 9.50085 22.4997 9.5H15.4997C15.0535 9.49979 14.62 9.6488 14.2683 9.92332C13.9165 10.1978 13.6667 10.5821 13.5584 11.015L10.4397 23.5H6.4997ZM23.3747 11.5775C23.3647 11.6225 23.3559 11.6675 23.3447 11.7125C23.0757 12.794 22.4526 13.7544 21.5746 14.4408C20.6966 15.1272 19.6142 15.5 18.4997 15.5H14.4997L15.4997 11.5H22.4997C22.7931 11.5002 23.0859 11.5261 23.3747 11.5775ZM27.3447 17.7125C27.0757 18.794 26.4526 19.7544 25.5746 20.4408C24.6966 21.1272 23.6142 21.5 22.4997 21.5H18.4997C18.0537 21.5001 17.6205 21.6492 17.269 21.9237C16.9175 22.1982 16.6678 22.5823 16.5597 23.015L15.4347 27.5H11.4997L13.9997 17.5H18.4997C20.0373 17.5004 21.5321 16.9937 22.7525 16.0583C23.9728 15.1229 24.8506 13.8111 25.2497 12.3263C25.7012 12.6254 26.1014 12.9956 26.4347 13.4225C26.9051 14.02 27.232 14.7175 27.3902 15.4613C27.5484 16.2051 27.5337 16.9753 27.3472 17.7125H27.3447Z" fill="#20712D"/>
</g>
</svg>
