<svg width="33" height="33" viewBox="0 0 33 33" fill="none" xmlns="http://www.w3.org/2000/svg">
<path d="M9.19922 13.575C9.19922 13.3097 9.30458 13.0554 9.49211 12.8678C9.67965 12.6803 9.934 12.575 10.1992 12.575H22.1992C22.4644 12.575 22.7188 12.6803 22.9063 12.8678C23.0939 13.0554 23.1992 13.3097 23.1992 13.575C23.1992 13.8402 23.0939 14.0945 22.9063 14.2821C22.7188 14.4696 22.4644 14.575 22.1992 14.575H10.1992C9.934 14.575 9.67965 14.4696 9.49211 14.2821C9.30458 14.0945 9.19922 13.8402 9.19922 13.575ZM10.1992 18.575H22.1992C22.4644 18.575 22.7188 18.4696 22.9063 18.2821C23.0939 18.0945 23.1992 17.8402 23.1992 17.575C23.1992 17.3097 23.0939 17.0554 22.9063 16.8678C22.7188 16.6803 22.4644 16.575 22.1992 16.575H10.1992C9.934 16.575 9.67965 16.6803 9.49211 16.8678C9.30458 17.0554 9.19922 17.3097 9.19922 17.575C9.19922 17.8402 9.30458 18.0945 9.49211 18.2821C9.67965 18.4696 9.934 18.575 10.1992 18.575ZM29.1992 7.57495V26.575C29.1991 26.7454 29.1555 26.913 29.0724 27.0618C28.9893 27.2106 28.8696 27.3358 28.7246 27.4253C28.5796 27.5148 28.4141 27.5658 28.2438 27.5734C28.0735 27.581 27.9041 27.545 27.7517 27.4687L24.1992 25.6925L20.6467 27.4687C20.5078 27.5382 20.3546 27.5744 20.1992 27.5744C20.0439 27.5744 19.8906 27.5382 19.7517 27.4687L16.1992 25.6925L12.6467 27.4687C12.5078 27.5382 12.3546 27.5744 12.1992 27.5744C12.0439 27.5744 11.8906 27.5382 11.7517 27.4687L8.19922 25.6925L4.64672 27.4687C4.4943 27.545 4.32491 27.581 4.15464 27.5734C3.98437 27.5658 3.81887 27.5148 3.67385 27.4253C3.52883 27.3358 3.4091 27.2106 3.32603 27.0618C3.24296 26.913 3.19931 26.7454 3.19922 26.575V7.57495C3.19922 7.04452 3.40993 6.53581 3.78501 6.16074C4.16008 5.78566 4.66879 5.57495 5.19922 5.57495H27.1992C27.7297 5.57495 28.2384 5.78566 28.6134 6.16074C28.9885 6.53581 29.1992 7.04452 29.1992 7.57495ZM27.1992 7.57495H5.19922V24.9575L7.75172 23.68C7.89065 23.6104 8.04387 23.5742 8.19922 23.5742C8.35457 23.5742 8.50779 23.6104 8.64672 23.68L12.1992 25.4575L15.7517 23.68C15.8906 23.6104 16.0439 23.5742 16.1992 23.5742C16.3546 23.5742 16.5078 23.6104 16.6467 23.68L20.1992 25.4575L23.7517 23.68C23.8906 23.6104 24.0439 23.5742 24.1992 23.5742C24.3546 23.5742 24.5078 23.6104 24.6467 23.68L27.1992 24.9575V7.57495Z" fill="#20712D"/>
</svg>
