<svg width="30" height="30" viewBox="0 0 30 30" fill="none" xmlns="http://www.w3.org/2000/svg">
<g id="CalendarCheck">
<path id="Vector" d="M24.375 3.28125H22.0312V2.8125C22.0312 2.43954 21.8831 2.08185 21.6194 1.81813C21.3556 1.55441 20.998 1.40625 20.625 1.40625C20.252 1.40625 19.8944 1.55441 19.6306 1.81813C19.3669 2.08185 19.2188 2.43954 19.2188 2.8125V3.28125H10.7812V2.8125C10.7812 2.43954 10.6331 2.08185 10.3694 1.81813C10.1056 1.55441 9.74796 1.40625 9.375 1.40625C9.00204 1.40625 8.64435 1.55441 8.38063 1.81813C8.11691 2.08185 7.96875 2.43954 7.96875 2.8125V3.28125H5.625C5.0034 3.28125 4.40726 3.52818 3.96772 3.96772C3.52818 4.40726 3.28125 5.0034 3.28125 5.625V24.375C3.28125 24.9966 3.52818 25.5927 3.96772 26.0323C4.40726 26.4718 5.0034 26.7188 5.625 26.7188H24.375C24.9966 26.7188 25.5927 26.4718 26.0323 26.0323C26.4718 25.5927 26.7188 24.9966 26.7188 24.375V5.625C26.7188 5.0034 26.4718 4.40726 26.0323 3.96772C25.5927 3.52818 24.9966 3.28125 24.375 3.28125ZM7.96875 6.09375C7.96875 6.46671 8.11691 6.8244 8.38063 7.08812C8.64435 7.35184 9.00204 7.5 9.375 7.5C9.74796 7.5 10.1056 7.35184 10.3694 7.08812C10.6331 6.8244 10.7812 6.46671 10.7812 6.09375H19.2188C19.2188 6.46671 19.3669 6.8244 19.6306 7.08812C19.8944 7.35184 20.252 7.5 20.625 7.5C20.998 7.5 21.3556 7.35184 21.6194 7.08812C21.8831 6.8244 22.0312 6.46671 22.0312 6.09375H23.9062V8.90625H6.09375V6.09375H7.96875ZM6.09375 23.9062V11.7188H23.9062V23.9062H6.09375ZM20.2137 14.0051C20.3448 14.1357 20.4488 14.291 20.5198 14.4619C20.5907 14.6328 20.6273 14.8161 20.6273 15.0012C20.6273 15.1863 20.5907 15.3695 20.5198 15.5404C20.4488 15.7114 20.3448 15.8666 20.2137 15.9973L14.5887 21.6223C14.458 21.7534 14.3028 21.8574 14.1319 21.9284C13.9609 21.9993 13.7777 22.0359 13.5926 22.0359C13.4075 22.0359 13.2242 21.9993 13.0533 21.9284C12.8824 21.8574 12.7271 21.7534 12.5965 21.6223L9.78398 18.8098C9.5198 18.5456 9.37139 18.1873 9.37139 17.8137C9.37139 17.4401 9.5198 17.0818 9.78398 16.8176C10.0482 16.5534 10.4065 16.405 10.7801 16.405C11.1537 16.405 11.512 16.5534 11.7762 16.8176L13.5938 18.6328L18.2238 14.0016C18.3547 13.871 18.5099 13.7676 18.6808 13.6971C18.8516 13.6267 19.0347 13.5906 19.2195 13.5909C19.4043 13.5912 19.5872 13.628 19.7578 13.699C19.9284 13.7701 20.0833 13.8741 20.2137 14.0051Z" fill="#F4F4F4"/>
</g>
</svg>
